<svg width="601" height="408" viewBox="0 0 601 408" fill="none" xmlns="http://www.w3.org/2000/svg">
<g clip-path="url(#clip0_94_2)">
<path d="M440 143.719C440 177.724 467.614 205.312 501.65 205.312H659.2C689.468 205.312 714 180.803 714 150.562C714 124.086 695.162 101.972 670.16 96.9246C671.915 92.3479 672.9 87.3434 672.9 82.125C672.9 59.4551 654.491 41.0625 631.8 41.0625C623.366 41.0625 615.488 43.6289 608.981 47.9918C597.122 27.4605 574.988 13.6875 549.6 13.6875C511.754 13.6875 481.1 44.3133 481.1 82.125C481.1 83.2799 481.143 84.4348 481.186 85.5897C457.211 94.016 440 116.857 440 143.719Z" fill="#C2C1C6" fill-opacity="0.2"/>
</g>
<g clip-path="url(#clip1_94_2)">
<path d="M-134 254.625C-134 290.027 -105.378 318.75 -70.1 318.75H93.2C124.573 318.75 150 293.234 150 261.75C150 234.185 130.475 211.163 104.56 205.908C106.379 201.143 107.4 195.933 107.4 190.5C107.4 166.898 88.3187 147.75 64.8 147.75C56.0581 147.75 47.8931 150.422 41.1481 154.964C28.8562 133.589 5.91437 119.25 -20.4 119.25C-59.6275 119.25 -91.4 151.134 -91.4 190.5C-91.4 191.702 -91.3556 192.905 -91.3113 194.107C-116.161 202.88 -134 226.659 -134 254.625Z" fill="#C2C1C6" fill-opacity="0.2"/>
</g>
<path d="M424 361.594C424 382.556 441.032 399.562 462.025 399.562H559.2C577.869 399.562 593 384.454 593 365.812C593 349.491 581.381 335.859 565.96 332.748C567.043 329.927 567.65 326.842 567.65 323.625C567.65 309.65 556.295 298.312 542.3 298.312C537.098 298.312 532.239 299.895 528.225 302.584C520.911 289.928 507.259 281.438 491.6 281.438C468.257 281.438 449.35 300.316 449.35 323.625C449.35 324.337 449.376 325.049 449.403 325.761C434.615 330.955 424 345.035 424 361.594Z" fill="#C2C1C6" fill-opacity="0.2"/>
<defs>
<clipPath id="clip0_94_2">
<rect width="161" height="219" fill="white" transform="translate(440)"/>
</clipPath>
<clipPath id="clip1_94_2">
<rect width="150" height="228" fill="white" transform="translate(0 105)"/>
</clipPath>
</defs>
</svg>
